PathFileType	4	(X/Y/Z)	C:/Users/beibeiliu/ov580/test_trc/User3\out7_training_dense_left.trc
DataRate	CameraRate	NumFrames	NumMarkers	Units	OrigDataRate	OrigDataStartFrame	OrigNumFrames
120	120	10	19	mm	120	1	500
Frame#	Time	ThumbCMC			ThumbMCP			ThumbIP			ThumbTip			IndexMCP			IndexPIP			IndexTip			MiddleMCP			MiddlePIP			MiddleTip			RingMCP			RingPIP			RingTip			PinkyMCP			PinkyPIP			PinkyTip			BackHand1			BackHand2			BackHand3	
		X0	Y0	Z0	X1	Y1	Z1	X2	Y2	Z2	X3	Y3	Z3	X4	Y4	Z4	X5	Y5	Z5	X6	Y6	Z6	X7	Y7	Z7	X8	Y8	Z8	X9	Y9	Z9	X10	Y10	Z10	X11	Y11	Z11	X12	Y12	Z12	X13	Y13	Z13	X14	Y14	Z14	X15	Y15	Z15	X16	Y16	Z16	X17	Y17	Z17	X18	Y18	Z18	
0	0	-113.727	48.2976	67.709	-97.3906	38.9181	43.918	-80.31	32.8439	18.7057	-74.5846	24.8894	-6.71727	-128.818	72.4696	-6.38555	-120.252	73.0354	-33.6903	-114.709	64.2421	-64.3482	-151.394	75.5229	-13.7877	-150.822	75.7766	-44.2659	-150.015	62.9664	-75.6123	-169.059	67.3862	-10.3216	-171.348	67.0601	-33.8717	-173.275	56.4107	-60.7489	-192.048	54.7919	3.13037	-195.026	51.9381	-16.5745	-193.662	44.9132	-41.6767	-172.933	72.8836	40.8282	-176.23	70.2966	75.4396	-142.336	74.5081	57.8044	
1	0.00833333	-115.438	47.8788	64.4717	-96.5362	39.9271	41.9474	-85.8372	33.0205	17.0321	-76.0584	24.3286	-7.12946	-129.312	72.5704	-8.85556	-121.622	72.9461	-38.8627	-116.611	63.5435	-65.9948	-150.574	75.7666	-17.2708	-149.504	75.9064	-42.6785	-149.606	63.1135	-76.6299	-173.861	66.9386	-9.52091	-170.593	65.8954	-35.2103	-172.68	54.0752	-66.4939	-189.951	53.6144	6.10131	-195.626	50.7387	-22.6748	-197.379	44.7546	-42.1399	-175.439	70.8681	43.3576	-175.4	71.51	71.8858	-141.59	73.5964	55.0017	
2	0.0166667	-115.79	46.5497	65.6974	-98.5736	38.9862	43.8607	-82.4154	32.2142	13.4904	-77.9425	24.301	-3.5281	-124.037	72.2599	-12.6288	-121.965	71.9132	-37.1282	-113.009	64.8289	-62.394	-152.966	75.028	-14.5287	-149.587	74.9906	-44.2572	-146.285	64.1523	-75.5671	-168.967	66.6316	-7.694	-171.076	64.4841	-39.9258	-173.909	53.3941	-65.6995	-191.581	54.6886	4.3575	-196.093	50.428	-20.8689	-195.508	42.3377	-41.938	-176.099	71.3484	42.4539	-174.568	69.6315	71.0447	-143.164	72.4277	57.1987	
3	0.025	-112.258	47.0528	61.512	-98.9566	38.5485	40.9415	-84.0527	31.5202	15.5931	-76.7593	23.1575	-2.18899	-127.124	71.2546	-12.0109	-117.982	71.5357	-40.0255	-119.163	64.1466	-61.647	-150.744	73.8789	-12.9566	-150.099	73.9764	-46.079	-149.384	63.1033	-75.9378	-168.575	66.6927	-9.95245	-172.027	64.3998	-38.2988	-172.029	55.6615	-60.9793	-187.031	53.3869	6.25121	-191.683	52.2877	-20.0075	-195.949	44.6486	-42.3525	-174.108	70.1316	39.8327	-178.171	69.3385	70.2553	-141.47	72.5837	54.5392	
4	0.0333333	-116.828	44.638	65.6505	-97.5201	37.4723	40.1027	-81.1523	29.9685	18.0235	-74.373	21.6735	-3.61175	-124.775	69.9008	-7.77923	-120.256	70.8066	-34.5682	-114.908	63.6873	-60.6744	-148.601	75.0035	-17.306	-147.498	72.167	-47.2881	-147.14	63.3408	-73.8826	-173.357	64.1648	-8.57888	-170.812	63.5477	-38.8376	-173.798	51.9212	-64.0377	-192.413	52.2848	4.34355	-190.659	50.8913	-17.5023	-196.089	43.6805	-41.6944	-174.985	70.4176	41.5233	-172.439	69.3019	69.89	-142.175	70.3017	55.1383	
5	0.0416667	-116.041	45.0318	61.9273	-98.5918	37.3301	41.222	-83.713	30.4329	14.531	-74.3469	21.0993	-4.51329	-124.104	68.6522	-6.53149	-122.959	68.5241	-38.5201	-115.76	62.2188	-60.3407	-152.655	72.6922	-16.4249	-148.283	72.3446	-44.3781	-150.088	61.4618	-74.4419	-173.842	63.7166	-8.3269	-173.808	62.4392	-38.1832	-175.339	52.7451	-61.0023	-190.168	52.6789	5.4118	-191.329	50.5719	-15.3971	-196.199	41.078	-39.976	-171.723	69.2187	45.22	-174.883	67.5687	72.0222	-138.98	69.8727	56.7772	
6	0.05	-113.477	45.5426	62.5968	-95.8499	37.1633	40.7049	-84.8711	28.5452	18.9178	-76.5858	21.548	-2.86384	-127.818	69.5785	-11.6407	-119.52	69.0234	-34.2074	-117.904	62.0771	-60.6603	-153.36	72.9585	-16.8888	-147.868	72.7658	-42.0358	-147.673	62.1097	-76.4902	-168.986	63.7297	-6.00993	-172.294	63.0741	-35.2355	-171.094	53.1867	-64.8711	-192.299	52.3136	5.01199	-193.27	49.502	-21.0505	-195.521	41.672	-41.8874	-170.561	67.1268	45.3206	-176.402	67.3126	73.6929	-142.35	71.2633	58.3008	
7	0.0583333	-114.039	44.6526	67.4709	-96.8407	35.9314	43.8219	-80.8625	29.7681	15.622	-73.1744	21.0521	-2.93984	-126.941	69.9155	-9.89731	-118.922	68.3961	-38.6761	-119.071	62.6107	-60.8482	-151.653	72.6078	-16.3335	-149.113	71.9911	-42.688	-144.497	60.3561	-78.429	-168.885	64.1685	-6.96878	-174.742	62.4101	-35.5206	-173.927	53.0327	-60.9718	-191.815	53.6257	3.06473	-192.375	50.4193	-17.2458	-194.019	40.5496	-44.123	-176.094	66.9203	45.5658	-176.296	66.9079	72.0597	-139.478	71.8044	57.7308	
8	0.0666667	-114.309	43.8621	64.1136	-97.8222	36.053	40.4838	-85.3617	29.5643	16.5655	-76.3676	21.9897	-7.29829	-126.833	69.6283	-7.6913	-120.138	69.4902	-39.615	-113.568	60.8953	-64.9109	-151.123	72.5186	-13.0772	-151.775	71.8278	-46.434	-147.288	61.2724	-76.1616	-170.868	64.5428	-8.93253	-174.144	62.8659	-35.3953	-170.511	52.1984	-63.6544	-192.084	52.1705	7.21667	-192.29	50.8553	-16.442	-195.07	41.8541	-42.6657	-173.269	66.5871	43.5891	-176.803	65.4324	74.681	-141.202	68.9597	58.1823	
9	0.075	-116.506	42.8145	64.7673	-94.1368	34.7713	40.5464	-80.8027	28.3151	17.7632	-78.8247	19.6393	-4.45638	-125.677	68.8858	-9.68842	-123.025	69.6143	-35.8951	-117.909	62.1699	-63.5195	-149.642	72.9473	-15.9649	-147.746	72.6142	-44.9376	-146.934	61.5204	-75.3581	-167.627	65.3976	-10.2743	-175.219	63.9581	-34.5009	-172.675	52.3034	-62.4423	-187.641	51.9504	7.54386	-193.555	50.1241	-19.7233	-193.819	41.8268	-41.8938	-175.827	66.796	43.6776	-176.151	66.6456	70.1543	-139.954	68.8188	58.2619	
